<svg xmlns="http://www.w3.org/2000/svg" width="98" height="98" viewBox="0 0 98 98" fill="none">
  <path fill-rule="evenodd" clip-rule="evenodd" d="M39.7289 0.401855C18.001 0.401855 0.402344 17.983 0.402344 39.6892C0.402344 57.0739 11.6596 71.7575 27.2919 76.9631C29.2582 77.3069 29.9956 76.1283 29.9956 75.097C29.9956 74.1639 29.9464 71.07 29.9464 67.7797C20.0656 69.5967 17.5094 65.3733 16.7229 63.1634C16.2804 62.0339 14.3633 58.5472 12.6919 57.6141C11.3155 56.8774 9.34913 55.0604 12.6427 55.0113C15.7397 54.9622 17.9518 57.8596 18.6892 59.0383C22.2286 64.9805 27.8818 63.3108 30.143 62.2795C30.4871 59.7258 31.5195 58.007 32.6501 57.0248C23.8999 56.0426 14.7565 52.6541 14.7565 37.6266C14.7565 33.3541 16.2804 29.8183 18.7875 27.0682C18.3942 26.086 17.0178 22.059 19.1808 16.657C19.1808 16.657 22.4744 15.6257 29.9956 20.684C33.1417 19.8 36.4844 19.358 39.8272 19.358C43.1699 19.358 46.5127 19.8 49.6588 20.684C57.18 15.5766 60.4736 16.657 60.4736 16.657C62.6366 22.059 61.2601 26.086 60.8669 27.0682C63.3739 29.8183 64.8978 33.305 64.8978 37.6266C64.8978 52.7032 55.7053 56.0426 46.9551 57.0248C48.3807 58.2525 49.6097 60.6098 49.6097 64.2929C49.6097 69.5476 49.5605 73.771 49.5605 75.097C49.5605 76.1283 50.2979 77.356 52.2642 76.9631C67.7982 71.7575 79.0554 57.0248 79.0554 39.6892C79.0554 17.983 61.4568 0.401855 39.7289 0.401855Z" fill="white"/>
</svg>