<svg xmlns="http://www.w3.org/2000/svg" width="98" height="98" viewBox="0 0 98 98" fill="none">
  <path d="M80.1444 8.02421C77.2048 9.32137 74.0539 10.1923 70.7415 10.5876C74.1223 8.57396 76.7201 5.38666 77.9382 1.59401C74.7811 3.45327 71.2697 4.80602 67.547 5.5349C64.5639 2.3723 60.313 0.401855 55.6084 0.401855C46.5721 0.401855 39.2448 7.6783 39.2448 16.6596C39.2448 17.932 39.394 19.1736 39.6737 20.3658C26.0757 19.6863 14.0252 13.2129 5.95216 3.37297C4.5414 5.78198 3.73969 8.57396 3.73969 11.5513C3.73969 17.1908 6.62336 22.1694 11.0172 25.0911C8.33243 25.0047 5.80922 24.2696 3.60297 23.0527C3.60297 23.1207 3.60297 23.1886 3.60297 23.2566C3.60297 31.1384 9.246 37.7045 16.7224 39.2055C15.3552 39.5761 13.9071 39.7737 12.4156 39.7737C11.359 39.7737 10.3336 39.6749 9.33301 39.4773C11.4212 45.9322 17.462 50.6452 24.6152 50.7749C19.0219 55.1358 11.9681 57.7301 4.29902 57.7301C2.97527 57.7301 1.67638 57.656 0.402344 57.5016C7.63637 62.122 16.2377 64.8089 25.4791 64.8089C55.5711 64.8089 72.0279 40.0332 72.0279 18.5497C72.0279 17.8456 72.0093 17.1352 71.9844 16.4434C75.1788 14.1518 77.9506 11.2856 80.1444 8.02421Z" fill="white"/>
</svg>
