<svg width="366" height="367" viewBox="0 0 366 367" fill="none" xmlns="http://www.w3.org/2000/svg">
<g filter="url(#filter0_d_55_1066)">
<g clip-path="url(#clip0_55_1066)">
<rect width="352.93" height="352.93" transform="translate(7 3)" fill="url(#paint0_linear_55_1066)"/>
<g opacity="0.05" filter="url(#filter1_f_55_1066)">
<mask id="mask0_55_1066" style="mask-type:alpha" maskUnits="userSpaceOnUse" x="160" y="156" width="98" height="98">
<path d="M240.015 163.895C237.075 165.192 233.924 166.063 230.612 166.458C233.992 164.445 236.59 161.257 237.808 157.465C234.651 159.324 231.14 160.677 227.417 161.406C224.434 158.243 220.183 156.273 215.479 156.273C206.442 156.273 199.115 163.549 199.115 172.53C199.115 173.803 199.264 175.044 199.544 176.236C185.946 175.557 173.895 169.084 165.822 159.244C164.412 161.653 163.61 164.445 163.61 167.422C163.61 173.062 166.493 178.04 170.887 180.962C168.203 180.875 165.679 180.14 163.473 178.923C163.473 178.991 163.473 179.059 163.473 179.127C163.473 187.009 169.116 193.575 176.593 195.076C175.225 195.447 173.777 195.644 172.286 195.644C171.229 195.644 170.204 195.546 169.203 195.348C171.291 201.803 177.332 206.516 184.485 206.646C178.892 211.007 171.838 213.601 164.169 213.601C162.845 213.601 161.546 213.527 160.272 213.372C167.506 217.993 176.108 220.68 185.349 220.68C215.441 220.68 231.898 195.904 231.898 174.42C231.898 173.716 231.879 173.006 231.855 172.314C235.049 170.022 237.821 167.156 240.015 163.895Z" fill="white"/>
</mask>
<g mask="url(#mask0_55_1066)">
<g filter="url(#filter2_d_55_1066)">
<rect x="160.272" y="156.273" width="96.8024" height="96.8" fill="#1F7DD4"/>
</g>
</g>
</g>
<g opacity="0.1" filter="url(#filter3_f_55_1066)">
<mask id="mask1_55_1066" style="mask-type:alpha" maskUnits="userSpaceOnUse" x="152" y="148" width="98" height="98">
<path d="M231.948 155.828C229.009 157.125 225.858 157.996 222.545 158.391C225.926 156.378 228.524 153.19 229.742 149.398C226.585 151.257 223.073 152.61 219.351 153.339C216.368 150.176 212.117 148.206 207.412 148.206C198.376 148.206 191.049 155.482 191.049 164.463C191.049 165.736 191.198 166.977 191.477 168.17C177.879 167.49 165.829 161.017 157.756 151.177C156.345 153.586 155.543 156.378 155.543 159.355C155.543 164.995 158.427 169.973 162.821 172.895C160.136 172.808 157.613 172.073 155.407 170.857C155.407 170.925 155.407 170.992 155.407 171.06C155.407 178.942 161.05 185.508 168.526 187.009C167.159 187.38 165.711 187.578 164.219 187.578C163.163 187.578 162.137 187.479 161.137 187.281C163.225 193.736 169.266 198.449 176.419 198.579C170.826 202.94 163.772 205.534 156.103 205.534C154.779 205.534 153.48 205.46 152.206 205.305C159.44 209.926 168.041 212.613 177.283 212.613C207.375 212.613 223.832 187.837 223.832 166.354C223.832 165.649 223.813 164.939 223.788 164.247C226.983 161.956 229.754 159.089 231.948 155.828Z" fill="white"/>
</mask>
<g mask="url(#mask1_55_1066)">
<g filter="url(#filter4_d_55_1066)">
<rect x="152.206" y="148.206" width="96.8024" height="96.8" fill="#1F7DD4"/>
</g>
</g>
</g>
<g opacity="0.15" filter="url(#filter5_f_55_1066)">
<mask id="mask2_55_1066" style="mask-type:alpha" maskUnits="userSpaceOnUse" x="144" y="140" width="97" height="97">
<path d="M223.881 147.761C220.941 149.058 217.79 149.929 214.478 150.324C217.859 148.311 220.456 145.123 221.675 141.331C218.517 143.19 215.006 144.543 211.283 145.272C208.3 142.109 204.049 140.139 199.345 140.139C190.308 140.139 182.981 147.415 182.981 156.396C182.981 157.669 183.13 158.91 183.41 160.103C169.812 159.423 157.762 152.95 149.688 143.11C148.278 145.519 147.476 148.311 147.476 151.288C147.476 156.928 150.36 161.906 154.754 164.828C152.069 164.741 149.546 164.006 147.339 162.79C147.339 162.858 147.339 162.925 147.339 162.993C147.339 170.875 152.982 177.441 160.459 178.942C159.091 179.313 157.643 179.511 156.152 179.511C155.095 179.511 154.07 179.412 153.069 179.214C155.158 185.669 161.198 190.382 168.352 190.512C162.758 194.873 155.704 197.467 148.035 197.467C146.712 197.467 145.413 197.393 144.139 197.238C151.373 201.859 159.974 204.546 169.215 204.546C199.307 204.546 215.764 179.77 215.764 158.287C215.764 157.582 215.746 156.872 215.721 156.18C218.915 153.889 221.687 151.022 223.881 147.761Z" fill="white"/>
</mask>
<g mask="url(#mask2_55_1066)">
<g filter="url(#filter6_d_55_1066)">
<rect x="144.139" y="140.139" width="96.8024" height="96.8" fill="#1F7DD4"/>
</g>
</g>
</g>
<g opacity="0.2" filter="url(#filter7_f_55_1066)">
<mask id="mask3_55_1066" style="mask-type:alpha" maskUnits="userSpaceOnUse" x="136" y="132" width="97" height="97">
<path d="M215.813 139.694C212.874 140.991 209.723 141.862 206.41 142.257C209.791 140.244 212.389 137.056 213.607 133.264C210.45 135.123 206.939 136.476 203.216 137.205C200.233 134.042 195.982 132.072 191.277 132.072C182.241 132.072 174.914 139.348 174.914 148.329C174.914 149.602 175.063 150.843 175.343 152.036C161.745 151.356 149.694 144.883 141.621 135.043C140.21 137.452 139.409 140.244 139.409 143.221C139.409 148.861 142.292 153.839 146.686 156.761C144.001 156.674 141.478 155.939 139.272 154.723C139.272 154.79 139.272 154.858 139.272 154.926C139.272 162.808 144.915 169.374 152.391 170.875C151.024 171.246 149.576 171.444 148.084 171.444C147.028 171.444 146.003 171.345 145.002 171.147C147.09 177.602 153.131 182.315 160.284 182.445C154.691 186.806 147.637 189.4 139.968 189.4C138.644 189.4 137.345 189.326 136.071 189.171C143.305 193.792 151.907 196.479 161.148 196.479C191.24 196.479 207.697 171.703 207.697 150.22C207.697 149.515 207.678 148.805 207.653 148.113C210.848 145.822 213.62 142.955 215.813 139.694Z" fill="white"/>
</mask>
<g mask="url(#mask3_55_1066)">
<g filter="url(#filter8_d_55_1066)">
<rect x="136.071" y="132.072" width="96.8024" height="96.8" fill="#1F7DD4"/>
</g>
</g>
</g>
<g opacity="0.25" filter="url(#filter9_f_55_1066)">
<mask id="mask4_55_1066" style="mask-type:alpha" maskUnits="userSpaceOnUse" x="119" y="115" width="98" height="98">
<path d="M199.68 123.56C196.74 124.857 193.589 125.728 190.277 126.124C193.657 124.11 196.255 120.923 197.473 117.13C194.316 118.989 190.805 120.342 187.082 121.071C184.099 117.908 179.848 115.938 175.144 115.938C166.107 115.938 158.78 123.214 158.78 132.195C158.78 133.468 158.929 134.71 159.209 135.902C145.611 135.222 133.56 128.749 125.487 118.909C124.077 121.318 123.275 124.11 123.275 127.087C123.275 132.727 126.159 137.705 130.552 140.627C127.868 140.541 125.344 139.805 123.138 138.589C123.138 138.657 123.138 138.725 123.138 138.792C123.138 146.674 128.781 153.24 136.258 154.741C134.89 155.112 133.442 155.31 131.951 155.31C130.894 155.31 129.869 155.211 128.868 155.013C130.956 161.468 136.997 166.181 144.15 166.311C138.557 170.672 131.503 173.266 123.834 173.266C122.51 173.266 121.212 173.192 119.938 173.037C127.172 177.658 135.773 180.345 145.014 180.345C175.106 180.345 191.563 155.569 191.563 134.086C191.563 133.381 191.544 132.671 191.52 131.979C194.714 129.688 197.486 126.822 199.68 123.56Z" fill="white"/>
</mask>
<g mask="url(#mask4_55_1066)">
<g filter="url(#filter10_d_55_1066)">
<rect x="119.938" y="115.938" width="96.8024" height="96.8" fill="#1F7DD4"/>
</g>
</g>
</g>
<g opacity="0.3" filter="url(#filter11_f_55_1066)">
<mask id="mask5_55_1066" style="mask-type:alpha" maskUnits="userSpaceOnUse" x="103" y="99" width="98" height="98">
<path d="M183.546 107.426C180.606 108.723 177.455 109.594 174.143 109.99C177.524 107.976 180.121 104.789 181.34 100.996C178.182 102.855 174.671 104.208 170.948 104.937C167.965 101.774 163.714 99.8037 159.01 99.8037C149.973 99.8037 142.646 107.08 142.646 116.061C142.646 117.334 142.795 118.575 143.075 119.768C129.477 119.088 117.427 112.615 109.354 102.775C107.943 105.184 107.141 107.976 107.141 110.953C107.141 116.593 110.025 121.571 114.419 124.493C111.734 124.407 109.211 123.671 107.004 122.455C107.004 122.523 107.004 122.59 107.004 122.658C107.004 130.54 112.647 137.106 120.124 138.607C118.757 138.978 117.308 139.176 115.817 139.176C114.76 139.176 113.735 139.077 112.734 138.879C114.823 145.334 120.863 150.047 128.017 150.177C122.423 154.538 115.369 157.132 107.7 157.132C106.377 157.132 105.078 157.058 103.804 156.903C111.038 161.524 119.639 164.211 128.88 164.211C158.972 164.211 175.429 139.435 175.429 117.952C175.429 117.247 175.411 116.537 175.386 115.845C178.58 113.554 181.352 110.687 183.546 107.426Z" fill="white"/>
</mask>
<g mask="url(#mask5_55_1066)">
<g filter="url(#filter12_d_55_1066)">
<rect x="103.804" y="99.8037" width="96.8024" height="96.8" fill="#1F7DD4"/>
</g>
</g>
</g>
<g opacity="0.35" filter="url(#filter13_f_55_1066)">
<mask id="mask6_55_1066" style="mask-type:alpha" maskUnits="userSpaceOnUse" x="87" y="83" width="98" height="98">
<path d="M167.412 91.2922C164.472 92.5893 161.322 93.4603 158.009 93.8556C161.39 91.8419 163.988 88.6546 165.206 84.862C162.049 86.7212 158.537 88.074 154.815 88.8028C151.832 85.6402 147.581 83.6698 142.876 83.6698C133.84 83.6698 126.512 90.9462 126.512 99.9275C126.512 101.2 126.662 102.442 126.941 103.634C113.343 102.954 101.293 96.4808 93.2197 86.6409C91.809 89.0499 91.0073 91.8419 91.0073 94.8192C91.0073 100.459 93.8909 105.437 98.2848 108.359C95.6 108.273 93.0768 107.538 90.8705 106.321C90.8705 106.389 90.8705 106.457 90.8705 106.525C90.8705 114.406 96.5136 120.972 103.99 122.473C102.623 122.844 101.175 123.042 99.6831 123.042C98.6266 123.042 97.6012 122.943 96.6006 122.745C98.6888 129.2 104.73 133.913 111.883 134.043C106.289 138.404 99.2357 140.998 91.5666 140.998C90.2428 140.998 88.944 140.924 87.6699 140.77C94.9039 145.39 103.505 148.077 112.747 148.077C142.839 148.077 159.295 123.301 159.295 101.818C159.295 101.114 159.277 100.403 159.252 99.7113C162.446 97.4197 165.218 94.5536 167.412 91.2922Z" fill="white"/>
</mask>
<g mask="url(#mask6_55_1066)">
<g filter="url(#filter14_d_55_1066)">
<rect x="87.6699" y="83.6698" width="96.8024" height="96.8" fill="#1F7DD4"/>
</g>
</g>
</g>
<g opacity="0.4" filter="url(#filter15_f_55_1066)">
<mask id="mask7_55_1066" style="mask-type:alpha" maskUnits="userSpaceOnUse" x="85" y="81" width="98" height="98">
<path d="M165.395 89.2754C162.456 90.5726 159.305 91.4435 155.992 91.8389C159.373 89.8252 161.971 86.6379 163.189 82.8452C160.032 84.7045 156.521 86.0572 152.798 86.7861C149.815 83.6235 145.564 81.6531 140.859 81.6531C131.823 81.6531 124.496 88.9295 124.496 97.9108C124.496 99.1833 124.645 100.425 124.925 101.617C111.327 100.938 99.2762 94.4641 91.2031 84.6242C89.7924 87.0332 88.9907 89.8252 88.9907 92.8025C88.9907 98.442 91.8743 103.421 96.2682 106.342C93.5834 106.256 91.0602 105.521 88.8539 104.304C88.8539 104.372 88.8539 104.44 88.8539 104.508C88.8539 112.39 94.497 118.956 101.973 120.457C100.606 120.827 99.1581 121.025 97.6665 121.025C96.61 121.025 95.5846 120.926 94.584 120.728C96.6722 127.183 102.713 131.896 109.866 132.026C104.273 136.387 97.2191 138.981 89.55 138.981C88.2262 138.981 86.9274 138.907 85.6533 138.753C92.8873 143.373 101.489 146.06 110.73 146.06C140.822 146.06 157.279 121.284 157.279 99.801C157.279 99.0968 157.26 98.3864 157.235 97.6946C160.43 95.403 163.202 92.5369 165.395 89.2754Z" fill="white"/>
</mask>
<g mask="url(#mask7_55_1066)">
<g filter="url(#filter16_d_55_1066)">
<rect x="85.6533" y="81.6531" width="96.8024" height="96.8" fill="#1F7DD4"/>
</g>
</g>
</g>
<g opacity="0.45" filter="url(#filter17_f_55_1066)">
<mask id="mask8_55_1066" style="mask-type:alpha" maskUnits="userSpaceOnUse" x="77" y="73" width="98" height="98">
<path d="M157.328 81.2084C154.388 82.5056 151.238 83.3765 147.925 83.7719C151.306 81.7582 153.904 78.5709 155.122 74.7782C151.965 76.6375 148.453 77.9902 144.731 78.7191C141.748 75.5565 137.497 73.5861 132.792 73.5861C123.756 73.5861 116.428 80.8625 116.428 89.8438C116.428 91.1162 116.578 92.3578 116.857 93.55C103.259 92.8705 91.2088 86.3971 83.1358 76.5572C81.725 78.9662 80.9233 81.7582 80.9233 84.7355C80.9233 90.375 83.807 95.3536 88.2008 98.2753C85.516 98.1889 82.9928 97.4538 80.7866 96.2369C80.7866 96.3049 80.7866 96.3728 80.7866 96.4408C80.7866 104.323 86.4296 110.889 93.906 112.39C92.5387 112.76 91.0907 112.958 89.5991 112.958C88.5426 112.958 87.5172 112.859 86.5166 112.661C88.6048 119.116 94.6456 123.829 101.799 123.959C96.2055 128.32 89.1517 130.914 81.4826 130.914C80.1589 130.914 78.86 130.84 77.5859 130.686C84.82 135.306 93.4212 137.993 102.663 137.993C132.755 137.993 149.212 113.217 149.212 91.7339C149.212 91.0298 149.193 90.3194 149.168 89.6276C152.362 87.336 155.134 84.4698 157.328 81.2084Z" fill="white"/>
</mask>
<g mask="url(#mask8_55_1066)">
<g filter="url(#filter18_d_55_1066)">
<rect x="77.5859" y="73.5861" width="96.8024" height="96.8" fill="#1F7DD4"/>
</g>
</g>
</g>
<g opacity="0.5" filter="url(#filter19_f_55_1066)">
<mask id="mask9_55_1066" style="mask-type:alpha" maskUnits="userSpaceOnUse" x="69" y="65" width="98" height="98">
<path d="M149.262 73.1414C146.322 74.4386 143.171 75.3095 139.859 75.7048C143.239 73.6911 145.837 70.5038 147.055 66.7112C143.898 68.5705 140.387 69.9232 136.664 70.6521C133.681 67.4895 129.43 65.519 124.726 65.519C115.689 65.519 108.362 72.7955 108.362 81.7768C108.362 83.0492 108.511 84.2908 108.791 85.483C95.1929 84.8035 83.1424 78.33 75.0693 68.4902C73.6586 70.8992 72.8569 73.6911 72.8569 76.6684C72.8569 82.308 75.7405 87.2866 80.1344 90.2083C77.4496 90.1218 74.9264 89.3868 72.7202 88.1699C72.7202 88.2379 72.7202 88.3058 72.7202 88.3738C72.7202 96.2556 78.3632 102.822 85.8396 104.323C84.4723 104.693 83.0243 104.891 81.5327 104.891C80.4762 104.891 79.4508 104.792 78.4502 104.594C80.5384 111.049 86.5792 115.762 93.7324 115.892C88.1391 120.253 81.0853 122.847 73.4162 122.847C72.0925 122.847 70.7936 122.773 69.5195 122.619C76.7536 127.239 85.3548 129.926 94.5963 129.926C124.688 129.926 141.145 105.15 141.145 83.6669C141.145 82.9628 141.126 82.2524 141.102 81.5606C144.296 79.2689 147.068 76.4028 149.262 73.1414Z" fill="white"/>
</mask>
<g mask="url(#mask9_55_1066)">
<g filter="url(#filter20_d_55_1066)">
<rect x="69.5195" y="65.519" width="96.8024" height="96.8" fill="#1F7DD4"/>
</g>
</g>
</g>
<g opacity="0.55" filter="url(#filter21_f_55_1066)">
<mask id="mask10_55_1066" style="mask-type:alpha" maskUnits="userSpaceOnUse" x="65" y="61" width="98" height="98">
<path d="M145.227 69.108C142.288 70.4051 139.137 71.2761 135.824 71.6714C139.205 69.6577 141.803 66.4704 143.021 62.6777C139.864 64.537 136.353 65.8898 132.63 66.6186C129.647 63.456 125.396 61.4856 120.691 61.4856C111.655 61.4856 104.328 68.762 104.328 77.7433C104.328 79.0158 104.477 80.2574 104.757 81.4495C91.1587 80.77 79.1082 74.2966 71.0352 64.4567C69.6244 66.8657 68.8227 69.6577 68.8227 72.635C68.8227 78.2746 71.7064 83.2532 76.1002 86.1749C73.4154 86.0884 70.8922 85.3533 68.686 84.1365C68.686 84.2044 68.686 84.2724 68.686 84.3403C68.686 92.2221 74.329 98.7882 81.8054 100.289C80.4382 100.66 78.9901 100.857 77.4986 100.857C76.442 100.857 75.4166 100.759 74.416 100.561C76.5042 107.016 82.545 111.729 89.6982 111.859C84.1049 116.22 77.0511 118.814 69.382 118.814C68.0583 118.814 66.7594 118.74 65.4854 118.585C72.7194 123.206 81.3207 125.893 90.5621 125.893C120.654 125.893 137.111 101.117 137.111 79.6335C137.111 78.9293 137.092 78.219 137.067 77.5271C140.262 75.2355 143.034 72.3694 145.227 69.108Z" fill="white"/>
</mask>
<g mask="url(#mask10_55_1066)">
<g filter="url(#filter22_d_55_1066)">
<rect x="65.4854" y="61.4856" width="96.8024" height="96.8" fill="#1F7DD4"/>
</g>
</g>
</g>
<g opacity="0.6" filter="url(#filter23_f_55_1066)">
<mask id="mask11_55_1066" style="mask-type:alpha" maskUnits="userSpaceOnUse" x="61" y="57" width="98" height="98">
<path d="M141.194 65.0745C138.255 66.3717 135.104 67.2426 131.791 67.6379C135.172 65.6243 137.77 62.4369 138.988 58.6443C135.831 60.5036 132.32 61.8563 128.597 62.5852C125.614 59.4226 121.363 57.4521 116.658 57.4521C107.622 57.4521 100.295 64.7286 100.295 73.7099C100.295 74.9823 100.444 76.2239 100.723 77.4161C87.1255 76.7366 75.075 70.2631 67.002 60.4233C65.5912 62.8323 64.7895 65.6243 64.7895 68.6015C64.7895 74.2411 67.6732 79.2197 72.067 82.1414C69.3822 82.0549 66.859 81.3199 64.6528 80.103C64.6528 80.171 64.6528 80.2389 64.6528 80.3069C64.6528 88.1887 70.2958 94.7548 77.7722 96.2558C76.405 96.6264 74.9569 96.824 73.4654 96.824C72.4088 96.824 71.3834 96.7252 70.3828 96.5275C72.471 102.982 78.5118 107.695 85.665 107.825C80.0717 112.186 73.0179 114.78 65.3488 114.78C64.0251 114.78 62.7262 114.706 61.4521 114.552C68.6862 119.172 77.2875 121.859 86.5289 121.859C116.621 121.859 133.078 97.0835 133.078 75.6C133.078 74.8959 133.059 74.1855 133.034 73.4937C136.229 71.202 139 68.3359 141.194 65.0745Z" fill="white"/>
</mask>
<g mask="url(#mask11_55_1066)">
<g filter="url(#filter24_d_55_1066)">
<rect x="61.4521" y="57.4521" width="96.8024" height="96.8" fill="#1F7DD4"/>
</g>
</g>
</g>
<g opacity="0.6" filter="url(#filter25_f_55_1066)">
<mask id="mask12_55_1066" style="mask-type:alpha" maskUnits="userSpaceOnUse" x="59" y="55" width="98" height="98">
<path d="M139.178 63.0578C136.238 64.3549 133.087 65.2259 129.775 65.6212C133.156 63.6075 135.753 60.4202 136.971 56.6276C133.814 58.4868 130.303 59.8396 126.58 60.5685C123.597 57.4059 119.346 55.4354 114.642 55.4354C105.605 55.4354 98.2781 62.7119 98.2781 71.6932C98.2781 72.9656 98.4272 74.2072 98.7069 75.3993C85.1089 74.7199 73.0584 68.2464 64.9854 58.4065C63.5746 60.8155 62.7729 63.6075 62.7729 66.5848C62.7729 72.2244 65.6566 77.203 70.0504 80.1247C67.3656 80.0382 64.8424 79.3032 62.6362 78.0863C62.6362 78.1543 62.6362 78.2222 62.6362 78.2901C62.6362 86.1719 68.2792 92.738 75.7556 94.239C74.3884 94.6097 72.9403 94.8073 71.4488 94.8073C70.3922 94.8073 69.3668 94.7085 68.3662 94.5108C70.4544 100.966 76.4952 105.679 83.6484 105.808C78.0551 110.169 71.0013 112.764 63.3322 112.764C62.0085 112.764 60.7096 112.69 59.4355 112.535C66.6696 117.156 75.2709 119.843 84.5123 119.843C114.604 119.843 131.061 95.0668 131.061 73.5833C131.061 72.8791 131.042 72.1688 131.018 71.477C134.212 69.1853 136.984 66.3192 139.178 63.0578Z" fill="white"/>
</mask>
<g mask="url(#mask12_55_1066)">
<g filter="url(#filter26_d_55_1066)">
<rect x="59.4355" y="55.4354" width="96.8024" height="96.8" fill="#1F7DD4"/>
</g>
</g>
</g>
<g opacity="0.6" filter="url(#filter27_f_55_1066)">
<mask id="mask13_55_1066" style="mask-type:alpha" maskUnits="userSpaceOnUse" x="57" y="53" width="98" height="98">
<path d="M137.161 61.0409C134.221 62.3381 131.071 63.209 127.758 63.6044C131.139 61.5907 133.737 58.4034 134.955 54.6107C131.798 56.47 128.286 57.8227 124.564 58.5516C121.581 55.389 117.33 53.4186 112.625 53.4186C103.589 53.4186 96.2614 60.695 96.2614 69.6763C96.2614 70.9488 96.4106 72.1903 96.6903 73.3825C83.0923 72.703 71.0418 66.2296 62.9688 56.3897C61.558 58.7987 60.7563 61.5907 60.7563 64.568C60.7563 70.2075 63.64 75.1862 68.0338 78.1079C65.349 78.0214 62.8258 77.2863 60.6196 76.0695C60.6196 76.1374 60.6196 76.2054 60.6196 76.2733C60.6196 84.1551 66.2626 90.7212 73.739 92.2222C72.3718 92.5928 70.9237 92.7905 69.4322 92.7905C68.3756 92.7905 67.3502 92.6916 66.3496 92.494C68.4378 98.9489 74.4786 103.662 81.6318 103.792C76.0385 108.153 68.9847 110.747 61.3156 110.747C59.9919 110.747 58.693 110.673 57.4189 110.518C64.653 115.139 73.2543 117.826 82.4957 117.826C112.588 117.826 129.045 93.0499 129.045 71.5665C129.045 70.8623 129.026 70.1519 129.001 69.4601C132.195 67.1685 134.967 64.3024 137.161 61.0409Z" fill="white"/>
</mask>
<g mask="url(#mask13_55_1066)">
<g filter="url(#filter28_d_55_1066)">
<rect x="57.4189" y="53.4186" width="96.8024" height="96.8" fill="#1F7DD4"/>
</g>
</g>
</g>
<g opacity="0.6" filter="url(#filter29_f_55_1066)">
<mask id="mask14_55_1066" style="mask-type:alpha" maskUnits="userSpaceOnUse" x="56" y="52" width="98" height="98">
<path d="M136.152 60.0326C133.213 61.3298 130.062 62.2007 126.749 62.5961C130.13 60.5824 132.728 57.3951 133.946 53.6024C130.789 55.4617 127.278 56.8144 123.555 57.5433C120.572 54.3807 116.321 52.4103 111.616 52.4103C102.58 52.4103 95.2527 59.6867 95.2527 68.668C95.2527 69.9405 95.4018 71.182 95.6815 72.3742C82.0835 71.6947 70.033 65.2213 61.96 55.3814C60.5492 57.7904 59.7475 60.5824 59.7475 63.5597C59.7475 69.1992 62.6312 74.1779 67.025 77.0996C64.3402 77.0131 61.817 76.278 59.6108 75.0612C59.6108 75.1291 59.6108 75.1971 59.6108 75.265C59.6108 83.1468 65.2538 89.7129 72.7302 91.2139C71.363 91.5845 69.9149 91.7822 68.4234 91.7822C67.3668 91.7822 66.3414 91.6833 65.3408 91.4857C67.429 97.9406 73.4698 102.654 80.623 102.783C75.0297 107.144 67.9759 109.739 60.3068 109.739C58.9831 109.739 57.6842 109.664 56.4102 109.51C63.6442 114.13 72.2455 116.817 81.4869 116.817C111.579 116.817 128.036 92.0416 128.036 70.5582C128.036 69.854 128.017 69.1436 127.992 68.4518C131.187 66.1602 133.958 63.2941 136.152 60.0326Z" fill="white"/>
</mask>
<g mask="url(#mask14_55_1066)">
<g filter="url(#filter30_d_55_1066)">
<rect x="56.4102" y="52.4103" width="96.8024" height="96.8" fill="#1F7DD4"/>
</g>
</g>
</g>
<g filter="url(#filter31_ii_55_1066)">
<mask id="mask15_55_1066" style="mask-type:alpha" maskUnits="userSpaceOnUse" x="55" y="51" width="98" height="98">
<path d="M135.144 59.0242C132.205 60.3214 129.054 61.1923 125.741 61.5876C129.122 59.574 131.72 56.3867 132.938 52.594C129.781 54.4533 126.27 55.806 122.547 56.5349C119.564 53.3723 115.313 51.4019 110.608 51.4019C101.572 51.4019 94.2448 58.6783 94.2448 67.6596C94.2448 68.932 94.394 70.1736 94.6737 71.3658C81.0757 70.6863 69.0252 64.2129 60.9522 54.373C59.5414 56.782 58.7397 59.574 58.7397 62.5513C58.7397 68.1908 61.6234 73.1694 66.0172 76.0911C63.3324 76.0047 60.8092 75.2696 58.603 74.0527C58.603 74.1207 58.603 74.1886 58.603 74.2566C58.603 82.1384 64.246 88.7045 71.7224 90.2055C70.3552 90.5761 68.9071 90.7737 67.4156 90.7737C66.359 90.7737 65.3336 90.6749 64.333 90.4773C66.4212 96.9322 72.462 101.645 79.6152 101.775C74.0219 106.136 66.9681 108.73 59.299 108.73C57.9753 108.73 56.6764 108.656 55.4023 108.502C62.6364 113.122 71.2377 115.809 80.4791 115.809C110.571 115.809 127.028 91.0332 127.028 69.5497C127.028 68.8456 127.009 68.1352 126.984 67.4434C130.179 65.1518 132.951 62.2856 135.144 59.0242Z" fill="white"/>
</mask>
<g mask="url(#mask15_55_1066)">
<rect x="55.4023" y="51.4019" width="96.8024" height="96.8" fill="url(#paint1_linear_55_1066)"/>
</g>
</g>
<path d="M56.6857 248.641V245.078H75.4094V248.641H68.156V268.545H63.9391V248.641H56.6857ZM80.4512 268.545L75.4781 250.944H79.7064L82.8003 263.32H82.9607L86.1233 250.944H90.3058L93.4684 263.251H93.6403L96.6883 250.944H100.928L95.9435 268.545H91.6235L88.3234 256.651H88.0828L84.7827 268.545H80.4512ZM103.824 268.545V250.944H107.972V268.545H103.824ZM105.91 248.446C105.253 248.446 104.688 248.229 104.214 247.793C103.74 247.35 103.503 246.819 103.503 246.201C103.503 245.574 103.74 245.043 104.214 244.608C104.688 244.165 105.253 243.943 105.91 243.943C106.574 243.943 107.14 244.165 107.606 244.608C108.079 245.043 108.316 245.574 108.316 246.201C108.316 246.819 108.079 247.35 107.606 247.793C107.14 248.229 106.574 248.446 105.91 248.446ZM121.027 250.944V254.153H110.909V250.944H121.027ZM113.407 246.728H117.555V263.251C117.555 263.809 117.639 264.237 117.807 264.535C117.983 264.825 118.212 265.024 118.494 265.13C118.777 265.237 119.09 265.291 119.434 265.291C119.694 265.291 119.931 265.272 120.144 265.234C120.366 265.195 120.534 265.161 120.649 265.13L121.348 268.373C121.126 268.45 120.809 268.534 120.397 268.625C119.992 268.717 119.495 268.771 118.907 268.786C117.868 268.816 116.932 268.66 116.099 268.316C115.267 267.965 114.606 267.422 114.117 266.689C113.636 265.955 113.399 265.039 113.407 263.939V246.728ZM133.285 250.944V254.153H123.167V250.944H133.285ZM125.665 246.728H129.813V263.251C129.813 263.809 129.897 264.237 130.065 264.535C130.241 264.825 130.47 265.024 130.752 265.13C131.035 265.237 131.348 265.291 131.692 265.291C131.952 265.291 132.189 265.272 132.402 265.234C132.624 265.195 132.792 265.161 132.907 265.13L133.606 268.373C133.384 268.45 133.067 268.534 132.655 268.625C132.25 268.717 131.753 268.771 131.165 268.786C130.126 268.816 129.19 268.66 128.358 268.316C127.525 267.965 126.864 267.422 126.375 266.689C125.894 265.955 125.657 265.039 125.665 263.939V246.728ZM144.357 268.889C142.592 268.889 141.068 268.522 139.785 267.789C138.509 267.048 137.527 266.001 136.84 264.649C136.152 263.289 135.809 261.689 135.809 259.848C135.809 258.037 136.152 256.449 136.84 255.081C137.535 253.706 138.505 252.637 139.75 251.873C140.996 251.101 142.459 250.715 144.139 250.715C145.224 250.715 146.248 250.891 147.21 251.242C148.18 251.586 149.036 252.121 149.777 252.847C150.525 253.572 151.114 254.497 151.541 255.62C151.969 256.735 152.183 258.064 152.183 259.607V260.879H137.757V258.083H148.207C148.199 257.289 148.027 256.582 147.691 255.963C147.355 255.337 146.885 254.844 146.282 254.485C145.686 254.126 144.991 253.947 144.196 253.947C143.348 253.947 142.604 254.153 141.962 254.565C141.32 254.97 140.82 255.505 140.461 256.17C140.109 256.827 139.93 257.549 139.922 258.335V260.776C139.922 261.8 140.109 262.678 140.484 263.412C140.858 264.137 141.381 264.695 142.054 265.085C142.726 265.467 143.513 265.658 144.414 265.658C145.018 265.658 145.564 265.574 146.053 265.405C146.542 265.23 146.966 264.974 147.325 264.638C147.684 264.302 147.955 263.885 148.138 263.389L152.011 263.824C151.767 264.848 151.301 265.742 150.613 266.506C149.933 267.262 149.063 267.85 148.001 268.27C146.939 268.683 145.724 268.889 144.357 268.889ZM155.692 268.545V250.944H159.714V253.878H159.898C160.219 252.862 160.769 252.079 161.548 251.529C162.335 250.971 163.232 250.692 164.241 250.692C164.47 250.692 164.726 250.704 165.008 250.727C165.299 250.742 165.539 250.769 165.73 250.807V254.623C165.555 254.562 165.276 254.508 164.894 254.462C164.52 254.409 164.157 254.382 163.805 254.382C163.049 254.382 162.369 254.546 161.766 254.875C161.17 255.196 160.7 255.643 160.356 256.216C160.012 256.788 159.841 257.449 159.841 258.198V268.545H155.692Z" fill="#FBFBFB"/>
<path d="M67.3997 312.236C65.6465 312.236 64.0967 311.996 62.7503 311.514C61.4039 311.039 60.2723 310.337 59.3556 309.409C58.4389 308.481 57.7457 307.343 57.2759 305.997C56.806 304.651 56.5711 303.109 56.5711 301.373C56.5711 299.695 56.8089 298.194 57.2844 296.87C57.7657 295.547 58.4618 294.424 59.3728 293.501C60.2895 292.573 61.401 291.865 62.7073 291.378C64.0193 290.891 65.5033 290.648 67.1591 290.648C68.769 290.648 70.1784 290.911 71.3873 291.439C72.602 291.96 73.6161 292.668 74.4296 293.561C75.249 294.449 75.862 295.449 76.2688 296.561C76.6813 297.672 76.8876 298.818 76.8876 299.998C76.8876 300.829 76.8474 301.671 76.7672 302.525C76.687 303.379 76.518 304.164 76.2602 304.88C76.0024 305.59 75.6042 306.163 75.0656 306.599C74.5328 307.034 73.8109 307.252 72.8999 307.252C72.4988 307.252 72.0577 307.189 71.5764 307.063C71.0951 306.937 70.6683 306.727 70.2959 306.435C69.9235 306.143 69.7029 305.751 69.6341 305.258H69.531C69.3935 305.59 69.1815 305.905 68.8951 306.203C68.6143 306.501 68.2448 306.739 67.7864 306.917C67.3338 307.094 66.7809 307.171 66.1278 307.149C65.3829 307.12 64.7269 306.954 64.1597 306.65C63.5925 306.341 63.117 305.922 62.7331 305.395C62.355 304.863 62.0685 304.247 61.8737 303.548C61.6846 302.843 61.5901 302.084 61.5901 301.27C61.5901 300.497 61.7047 299.789 61.9338 299.147C62.163 298.506 62.481 297.944 62.8878 297.463C63.3003 296.982 63.7816 296.598 64.3316 296.311C64.8873 296.019 65.4861 295.839 66.1278 295.77C66.7007 295.713 67.2221 295.738 67.6919 295.847C68.1617 295.95 68.5484 296.108 68.8521 296.32C69.1557 296.526 69.3477 296.755 69.4279 297.008H69.531V296.045H71.353V303.814C71.353 304.295 71.4876 304.719 71.7569 305.086C72.0262 305.453 72.4186 305.636 72.9343 305.636C73.5187 305.636 73.9656 305.435 74.275 305.034C74.5901 304.633 74.8049 304.015 74.9195 303.178C75.0398 302.342 75.1 301.27 75.1 299.964C75.1 299.196 74.994 298.44 74.782 297.695C74.5757 296.945 74.2606 296.243 73.8367 295.59C73.4184 294.936 72.8884 294.361 72.2467 293.862C71.6051 293.364 70.8516 292.974 69.9865 292.693C69.1271 292.407 68.1502 292.264 67.0559 292.264C65.7095 292.264 64.5035 292.473 63.4378 292.891C62.3779 293.303 61.4755 293.908 60.7307 294.704C59.9916 295.495 59.4272 296.458 59.0376 297.592C58.6538 298.721 58.4618 300.004 58.4618 301.442C58.4618 302.903 58.6538 304.201 59.0376 305.335C59.4272 306.47 60.0002 307.426 60.7565 308.206C61.5185 308.985 62.461 309.575 63.5839 309.976C64.7069 310.383 66.0017 310.586 67.4684 310.586C68.0987 310.586 68.7203 310.526 69.3334 310.406C69.9464 310.285 70.4878 310.154 70.9576 310.01C71.4274 309.867 71.7655 309.761 71.9717 309.692L72.453 311.274C72.0978 311.423 71.6337 311.572 71.0608 311.721C70.4936 311.87 69.8862 311.993 69.2388 312.09C68.5971 312.188 67.9841 312.236 67.3997 312.236ZM66.4028 305.395C67.1705 305.395 67.7921 305.241 68.2677 304.931C68.7432 304.622 69.0899 304.155 69.3076 303.53C69.5253 302.906 69.6341 302.118 69.6341 301.167C69.6341 300.205 69.5138 299.454 69.2732 298.915C69.0326 298.377 68.6773 297.999 68.2075 297.781C67.7377 297.563 67.1591 297.454 66.4715 297.454C65.8184 297.454 65.2598 297.626 64.7957 297.97C64.3373 298.308 63.985 298.761 63.7386 299.328C63.498 299.889 63.3777 300.502 63.3777 301.167C63.3777 301.9 63.4751 302.591 63.6699 303.238C63.8647 303.88 64.1826 304.401 64.6238 304.802C65.065 305.198 65.658 305.395 66.4028 305.395ZM83.8079 307.905C82.9715 307.905 82.2123 307.747 81.5305 307.432C80.8487 307.111 80.3073 306.65 79.9062 306.049C79.5052 305.441 79.3046 304.708 79.3046 303.848C79.3046 303.092 79.4536 302.479 79.7515 302.009C80.0495 301.534 80.4477 301.161 80.9461 300.892C81.4446 300.623 81.9946 300.422 82.5962 300.29C83.2035 300.153 83.8137 300.044 84.4267 299.964C85.2288 299.861 85.8791 299.783 86.3776 299.732C86.8818 299.675 87.2484 299.58 87.4776 299.448C87.7125 299.316 87.83 299.087 87.83 298.761V298.692C87.83 297.844 87.5979 297.185 87.1339 296.715C86.6755 296.246 85.9794 296.011 85.0455 296.011C84.0772 296.011 83.3181 296.223 82.7681 296.647C82.218 297.071 81.8313 297.523 81.6079 298.004L79.6828 297.317C80.0265 296.515 80.4849 295.89 81.0578 295.443C81.6365 294.991 82.2667 294.676 82.9485 294.498C83.6361 294.315 84.3121 294.223 84.9767 294.223C85.4007 294.223 85.8877 294.275 86.4377 294.378C86.9935 294.475 87.5292 294.679 88.0448 294.988C88.5662 295.297 88.9988 295.764 89.3425 296.389C89.6863 297.013 89.8582 297.85 89.8582 298.898V307.595H87.83V305.808H87.7268C87.5893 306.094 87.3602 306.401 87.0393 306.727C86.7185 307.054 86.2916 307.332 85.7588 307.561C85.226 307.79 84.5757 307.905 83.8079 307.905ZM84.1173 306.083C84.9194 306.083 85.5955 305.925 86.1455 305.61C86.7013 305.295 87.1195 304.888 87.4003 304.39C87.6867 303.891 87.83 303.367 87.83 302.817V300.961C87.744 301.064 87.555 301.158 87.2628 301.244C86.9763 301.325 86.644 301.396 86.2659 301.459C85.8934 301.517 85.5296 301.568 85.1744 301.614C84.8249 301.654 84.5413 301.688 84.3236 301.717C83.7965 301.786 83.3038 301.898 82.8454 302.052C82.3928 302.201 82.0261 302.428 81.7454 302.731C81.4704 303.029 81.3328 303.436 81.3328 303.952C81.3328 304.656 81.5935 305.189 82.1149 305.55C82.642 305.905 83.3095 306.083 84.1173 306.083ZM102.91 297.351L101.088 297.867C100.974 297.563 100.805 297.268 100.581 296.982C100.364 296.69 100.066 296.449 99.6877 296.26C99.3095 296.071 98.8254 295.976 98.2353 295.976C97.4274 295.976 96.7542 296.162 96.2157 296.535C95.6828 296.902 95.4164 297.369 95.4164 297.936C95.4164 298.44 95.5997 298.838 95.9664 299.13C96.3331 299.422 96.906 299.666 97.6852 299.861L99.6447 300.342C100.825 300.629 101.704 301.067 102.283 301.657C102.862 302.241 103.151 302.995 103.151 303.917C103.151 304.673 102.933 305.35 102.498 305.945C102.068 306.541 101.467 307.011 100.693 307.355C99.9197 307.699 99.0202 307.87 97.9946 307.87C96.6482 307.87 95.5339 307.578 94.6515 306.994C93.7692 306.409 93.2106 305.556 92.9757 304.433L94.9008 303.952C95.0841 304.662 95.4307 305.195 95.9406 305.55C96.4563 305.905 97.1295 306.083 97.9603 306.083C98.9056 306.083 99.6562 305.882 100.212 305.481C100.773 305.075 101.054 304.588 101.054 304.02C101.054 303.562 100.894 303.178 100.573 302.869C100.252 302.554 99.7593 302.319 99.0947 302.164L96.8946 301.648C95.6857 301.362 94.7976 300.918 94.2304 300.316C93.6689 299.709 93.3882 298.95 93.3882 298.039C93.3882 297.294 93.5973 296.635 94.0156 296.062C94.4395 295.489 95.0153 295.04 95.743 294.713C96.4763 294.386 97.3071 294.223 98.2353 294.223C99.5416 294.223 100.567 294.51 101.312 295.082C102.062 295.655 102.595 296.412 102.91 297.351ZM108.232 299.655V307.595H106.204V289.995H108.232V296.458H108.404C108.714 295.776 109.178 295.234 109.796 294.833C110.421 294.426 111.252 294.223 112.289 294.223C113.188 294.223 113.976 294.404 114.652 294.764C115.328 295.12 115.852 295.667 116.225 296.406C116.603 297.139 116.792 298.073 116.792 299.208V307.595H114.764V299.345C114.764 298.297 114.492 297.486 113.947 296.913C113.409 296.334 112.661 296.045 111.704 296.045C111.04 296.045 110.444 296.185 109.917 296.466C109.395 296.747 108.983 297.157 108.679 297.695C108.381 298.234 108.232 298.887 108.232 299.655ZM125.865 307.87C124.674 307.87 123.628 307.587 122.728 307.02C121.835 306.452 121.136 305.659 120.631 304.639C120.133 303.619 119.884 302.428 119.884 301.064C119.884 299.689 120.133 298.489 120.631 297.463C121.136 296.437 121.835 295.641 122.728 295.074C123.628 294.507 124.674 294.223 125.865 294.223C127.057 294.223 128.1 294.507 128.993 295.074C129.893 295.641 130.592 296.437 131.09 297.463C131.595 298.489 131.847 299.689 131.847 301.064C131.847 302.428 131.595 303.619 131.09 304.639C130.592 305.659 129.893 306.452 128.993 307.02C128.1 307.587 127.057 307.87 125.865 307.87ZM125.865 306.049C126.77 306.049 127.515 305.816 128.1 305.352C128.684 304.888 129.117 304.278 129.397 303.522C129.678 302.766 129.819 301.946 129.819 301.064C129.819 300.182 129.678 299.359 129.397 298.597C129.117 297.835 128.684 297.22 128.1 296.75C127.515 296.28 126.77 296.045 125.865 296.045C124.96 296.045 124.215 296.28 123.631 296.75C123.046 297.22 122.614 297.835 122.333 298.597C122.052 299.359 121.912 300.182 121.912 301.064C121.912 301.946 122.052 302.766 122.333 303.522C122.614 304.278 123.046 304.888 123.631 305.352C124.215 305.816 124.96 306.049 125.865 306.049ZM136.833 302.783L136.799 300.273H137.212L142.987 294.395H145.496L139.343 300.617H139.171L136.833 302.783ZM134.943 307.595V289.995H136.971V307.595H134.943ZM143.331 307.595L138.174 301.064L139.618 299.655L145.909 307.595H143.331ZM157.216 307.595V309.486H146.216V307.595H157.216ZM164.034 307.87C162.934 307.87 161.963 307.593 161.12 307.037C160.278 306.475 159.619 305.685 159.144 304.665C158.668 303.639 158.43 302.428 158.43 301.03C158.43 299.643 158.668 298.44 159.144 297.42C159.619 296.4 160.281 295.612 161.129 295.057C161.977 294.501 162.957 294.223 164.068 294.223C164.928 294.223 165.606 294.366 166.105 294.653C166.609 294.934 166.993 295.254 167.257 295.615C167.526 295.971 167.735 296.263 167.884 296.492H168.056V289.995H170.084V307.595H168.125V305.567H167.884C167.735 305.808 167.523 306.112 167.248 306.478C166.973 306.839 166.58 307.163 166.071 307.449C165.561 307.73 164.882 307.87 164.034 307.87ZM164.309 306.049C165.122 306.049 165.81 305.837 166.371 305.413C166.933 304.983 167.36 304.39 167.652 303.634C167.944 302.872 168.09 301.992 168.09 300.995C168.09 300.01 167.947 299.147 167.66 298.408C167.374 297.664 166.95 297.085 166.389 296.672C165.827 296.254 165.134 296.045 164.309 296.045C163.449 296.045 162.733 296.266 162.16 296.707C161.593 297.142 161.166 297.735 160.88 298.486C160.599 299.231 160.459 300.067 160.459 300.995C160.459 301.935 160.602 302.789 160.888 303.556C161.18 304.318 161.61 304.926 162.177 305.378C162.75 305.825 163.461 306.049 164.309 306.049ZM174.596 307.595L182.468 292.023V291.885H173.393V289.995H184.668V291.989L176.83 307.595H174.596Z" fill="#FBFBFB"/>
<rect x="10.025" y="6.0251" width="346.95" height="344.933" rx="45.3768" stroke="url(#paint2_linear_55_1066)" stroke-width="2.01674"/>
</g>
<rect x="8.00837" y="4.00837" width="350.913" height="350.914" rx="47.3935" stroke="black" stroke-opacity="0.08" stroke-width="2.01674" shape-rendering="crispEdges"/>
</g>
<defs>
<filter id="filter0_d_55_1066" x="0.949765" y="0.983255" width="365.03" height="365.031" filterUnits="userSpaceOnUse" color-interpolation-filters="sRGB">
<feFlood flood-opacity="0" result="BackgroundImageFix"/>
<feColorMatrix in="SourceAlpha" type="matrix" values="0 0 0 0 0 0 0 0 0 0 0 0 0 0 0 0 0 0 127 0" result="hardAlpha"/>
<feOffset dy="4.03349"/>
<feGaussianBlur stdDeviation="3.02512"/>
<feComposite in2="hardAlpha" operator="out"/>
<feColorMatrix type="matrix" values="0 0 0 0 0 0 0 0 0 0 0 0 0 0 0 0 0 0 0.03 0"/>
<feBlend mode="normal" in2="BackgroundImageFix" result="effect1_dropShadow_55_1066"/>
<feBlend mode="normal" in="SourceGraphic" in2="effect1_dropShadow_55_1066" result="shape"/>
</filter>
<filter id="filter1_f_55_1066" x="63.4687" y="59.4688" width="290.411" height="290.411" filterUnits="userSpaceOnUse" color-interpolation-filters="sRGB">
<feFlood flood-opacity="0" result="BackgroundImageFix"/>
<feBlend mode="normal" in="SourceGraphic" in2="BackgroundImageFix" result="shape"/>
<feGaussianBlur stdDeviation="48.4019" result="effect1_foregroundBlur_55_1066"/>
</filter>
<filter id="filter2_d_55_1066" x="152.205" y="156.273" width="112.937" height="112.934" filterUnits="userSpaceOnUse" color-interpolation-filters="sRGB">
<feFlood flood-opacity="0" result="BackgroundImageFix"/>
<feColorMatrix in="SourceAlpha" type="matrix" values="0 0 0 0 0 0 0 0 0 0 0 0 0 0 0 0 0 0 127 0" result="hardAlpha"/>
<feOffset dy="8.06698"/>
<feGaussianBlur stdDeviation="4.03349"/>
<feComposite in2="hardAlpha" operator="out"/>
<feColorMatrix type="matrix" values="0 0 0 0 0 0 0 0 0 0 0 0 0 0 0 0 0 0 0.25 0"/>
<feBlend mode="normal" in2="BackgroundImageFix" result="effect1_dropShadow_55_1066"/>
<feBlend mode="normal" in="SourceGraphic" in2="effect1_dropShadow_55_1066" result="shape"/>
</filter>
<filter id="filter3_f_55_1066" x="63.4693" y="59.4689" width="274.277" height="274.277" filterUnits="userSpaceOnUse" color-interpolation-filters="sRGB">
<feFlood flood-opacity="0" result="BackgroundImageFix"/>
<feBlend mode="normal" in="SourceGraphic" in2="BackgroundImageFix" result="shape"/>
<feGaussianBlur stdDeviation="44.3684" result="effect1_foregroundBlur_55_1066"/>
</filter>
<filter id="filter4_d_55_1066" x="144.139" y="148.206" width="112.937" height="112.934" filterUnits="userSpaceOnUse" color-interpolation-filters="sRGB">
<feFlood flood-opacity="0" result="BackgroundImageFix"/>
<feColorMatrix in="SourceAlpha" type="matrix" values="0 0 0 0 0 0 0 0 0 0 0 0 0 0 0 0 0 0 127 0" result="hardAlpha"/>
<feOffset dy="8.06698"/>
<feGaussianBlur stdDeviation="4.03349"/>
<feComposite in2="hardAlpha" operator="out"/>
<feColorMatrix type="matrix" values="0 0 0 0 0 0 0 0 0 0 0 0 0 0 0 0 0 0 0.25 0"/>
<feBlend mode="normal" in2="BackgroundImageFix" result="effect1_dropShadow_55_1066"/>
<feBlend mode="normal" in="SourceGraphic" in2="effect1_dropShadow_55_1066" result="shape"/>
</filter>
<filter id="filter5_f_55_1066" x="63.4689" y="59.4689" width="258.143" height="258.143" filterUnits="userSpaceOnUse" color-interpolation-filters="sRGB">
<feFlood flood-opacity="0" result="BackgroundImageFix"/>
<feBlend mode="normal" in="SourceGraphic" in2="BackgroundImageFix" result="shape"/>
<feGaussianBlur stdDeviation="40.3349" result="effect1_foregroundBlur_55_1066"/>
</filter>
<filter id="filter6_d_55_1066" x="136.072" y="140.139" width="112.937" height="112.934" filterUnits="userSpaceOnUse" color-interpolation-filters="sRGB">
<feFlood flood-opacity="0" result="BackgroundImageFix"/>
<feColorMatrix in="SourceAlpha" type="matrix" values="0 0 0 0 0 0 0 0 0 0 0 0 0 0 0 0 0 0 127 0" result="hardAlpha"/>
<feOffset dy="8.06698"/>
<feGaussianBlur stdDeviation="4.03349"/>
<feComposite in2="hardAlpha" operator="out"/>
<feColorMatrix type="matrix" values="0 0 0 0 0 0 0 0 0 0 0 0 0 0 0 0 0 0 0.25 0"/>
<feBlend mode="normal" in2="BackgroundImageFix" result="effect1_dropShadow_55_1066"/>
<feBlend mode="normal" in="SourceGraphic" in2="effect1_dropShadow_55_1066" result="shape"/>
</filter>
<filter id="filter7_f_55_1066" x="55.4015" y="51.4019" width="258.143" height="258.143" filterUnits="userSpaceOnUse" color-interpolation-filters="sRGB">
<feFlood flood-opacity="0" result="BackgroundImageFix"/>
<feBlend mode="normal" in="SourceGraphic" in2="BackgroundImageFix" result="shape"/>
<feGaussianBlur stdDeviation="40.3349" result="effect1_foregroundBlur_55_1066"/>
</filter>
<filter id="filter8_d_55_1066" x="128.004" y="132.072" width="112.937" height="112.934" filterUnits="userSpaceOnUse" color-interpolation-filters="sRGB">
<feFlood flood-opacity="0" result="BackgroundImageFix"/>
<feColorMatrix in="SourceAlpha" type="matrix" values="0 0 0 0 0 0 0 0 0 0 0 0 0 0 0 0 0 0 127 0" result="hardAlpha"/>
<feOffset dy="8.06698"/>
<feGaussianBlur stdDeviation="4.03349"/>
<feComposite in2="hardAlpha" operator="out"/>
<feColorMatrix type="matrix" values="0 0 0 0 0 0 0 0 0 0 0 0 0 0 0 0 0 0 0.25 0"/>
<feBlend mode="normal" in2="BackgroundImageFix" result="effect1_dropShadow_55_1066"/>
<feBlend mode="normal" in="SourceGraphic" in2="effect1_dropShadow_55_1066" result="shape"/>
</filter>
<filter id="filter9_f_55_1066" x="55.4017" y="51.4019" width="225.875" height="225.875" filterUnits="userSpaceOnUse" color-interpolation-filters="sRGB">
<feFlood flood-opacity="0" result="BackgroundImageFix"/>
<feBlend mode="normal" in="SourceGraphic" in2="BackgroundImageFix" result="shape"/>
<feGaussianBlur stdDeviation="32.2679" result="effect1_foregroundBlur_55_1066"/>
</filter>
<filter id="filter10_d_55_1066" x="111.871" y="115.938" width="112.937" height="112.934" filterUnits="userSpaceOnUse" color-interpolation-filters="sRGB">
<feFlood flood-opacity="0" result="BackgroundImageFix"/>
<feColorMatrix in="SourceAlpha" type="matrix" values="0 0 0 0 0 0 0 0 0 0 0 0 0 0 0 0 0 0 127 0" result="hardAlpha"/>
<feOffset dy="8.06698"/>
<feGaussianBlur stdDeviation="4.03349"/>
<feComposite in2="hardAlpha" operator="out"/>
<feColorMatrix type="matrix" values="0 0 0 0 0 0 0 0 0 0 0 0 0 0 0 0 0 0 0.25 0"/>
<feBlend mode="normal" in2="BackgroundImageFix" result="effect1_dropShadow_55_1066"/>
<feBlend mode="normal" in="SourceGraphic" in2="effect1_dropShadow_55_1066" result="shape"/>
</filter>
<filter id="filter11_f_55_1066" x="47.3349" y="43.3349" width="209.741" height="209.741" filterUnits="userSpaceOnUse" color-interpolation-filters="sRGB">
<feFlood flood-opacity="0" result="BackgroundImageFix"/>
<feBlend mode="normal" in="SourceGraphic" in2="BackgroundImageFix" result="shape"/>
<feGaussianBlur stdDeviation="28.2344" result="effect1_foregroundBlur_55_1066"/>
</filter>
<filter id="filter12_d_55_1066" x="95.7367" y="99.8037" width="112.937" height="112.934" filterUnits="userSpaceOnUse" color-interpolation-filters="sRGB">
<feFlood flood-opacity="0" result="BackgroundImageFix"/>
<feColorMatrix in="SourceAlpha" type="matrix" values="0 0 0 0 0 0 0 0 0 0 0 0 0 0 0 0 0 0 127 0" result="hardAlpha"/>
<feOffset dy="8.06698"/>
<feGaussianBlur stdDeviation="4.03349"/>
<feComposite in2="hardAlpha" operator="out"/>
<feColorMatrix type="matrix" values="0 0 0 0 0 0 0 0 0 0 0 0 0 0 0 0 0 0 0.25 0"/>
<feBlend mode="normal" in2="BackgroundImageFix" result="effect1_dropShadow_55_1066"/>
<feBlend mode="normal" in="SourceGraphic" in2="effect1_dropShadow_55_1066" result="shape"/>
</filter>
<filter id="filter13_f_55_1066" x="39.268" y="35.2679" width="193.607" height="193.607" filterUnits="userSpaceOnUse" color-interpolation-filters="sRGB">
<feFlood flood-opacity="0" result="BackgroundImageFix"/>
<feBlend mode="normal" in="SourceGraphic" in2="BackgroundImageFix" result="shape"/>
<feGaussianBlur stdDeviation="24.2009" result="effect1_foregroundBlur_55_1066"/>
</filter>
<filter id="filter14_d_55_1066" x="79.6029" y="83.6698" width="112.937" height="112.934" filterUnits="userSpaceOnUse" color-interpolation-filters="sRGB">
<feFlood flood-opacity="0" result="BackgroundImageFix"/>
<feColorMatrix in="SourceAlpha" type="matrix" values="0 0 0 0 0 0 0 0 0 0 0 0 0 0 0 0 0 0 127 0" result="hardAlpha"/>
<feOffset dy="8.06698"/>
<feGaussianBlur stdDeviation="4.03349"/>
<feComposite in2="hardAlpha" operator="out"/>
<feColorMatrix type="matrix" values="0 0 0 0 0 0 0 0 0 0 0 0 0 0 0 0 0 0 0.25 0"/>
<feBlend mode="normal" in2="BackgroundImageFix" result="effect1_dropShadow_55_1066"/>
<feBlend mode="normal" in="SourceGraphic" in2="effect1_dropShadow_55_1066" result="shape"/>
</filter>
<filter id="filter15_f_55_1066" x="37.2514" y="33.2512" width="193.607" height="193.607" filterUnits="userSpaceOnUse" color-interpolation-filters="sRGB">
<feFlood flood-opacity="0" result="BackgroundImageFix"/>
<feBlend mode="normal" in="SourceGraphic" in2="BackgroundImageFix" result="shape"/>
<feGaussianBlur stdDeviation="24.2009" result="effect1_foregroundBlur_55_1066"/>
</filter>
<filter id="filter16_d_55_1066" x="77.5863" y="81.6531" width="112.937" height="112.934" filterUnits="userSpaceOnUse" color-interpolation-filters="sRGB">
<feFlood flood-opacity="0" result="BackgroundImageFix"/>
<feColorMatrix in="SourceAlpha" type="matrix" values="0 0 0 0 0 0 0 0 0 0 0 0 0 0 0 0 0 0 127 0" result="hardAlpha"/>
<feOffset dy="8.06698"/>
<feGaussianBlur stdDeviation="4.03349"/>
<feComposite in2="hardAlpha" operator="out"/>
<feColorMatrix type="matrix" values="0 0 0 0 0 0 0 0 0 0 0 0 0 0 0 0 0 0 0.25 0"/>
<feBlend mode="normal" in2="BackgroundImageFix" result="effect1_dropShadow_55_1066"/>
<feBlend mode="normal" in="SourceGraphic" in2="effect1_dropShadow_55_1066" result="shape"/>
</filter>
<filter id="filter17_f_55_1066" x="45.318" y="41.3181" width="161.34" height="161.34" filterUnits="userSpaceOnUse" color-interpolation-filters="sRGB">
<feFlood flood-opacity="0" result="BackgroundImageFix"/>
<feBlend mode="normal" in="SourceGraphic" in2="BackgroundImageFix" result="shape"/>
<feGaussianBlur stdDeviation="16.134" result="effect1_foregroundBlur_55_1066"/>
</filter>
<filter id="filter18_d_55_1066" x="69.519" y="73.5861" width="112.937" height="112.934" filterUnits="userSpaceOnUse" color-interpolation-filters="sRGB">
<feFlood flood-opacity="0" result="BackgroundImageFix"/>
<feColorMatrix in="SourceAlpha" type="matrix" values="0 0 0 0 0 0 0 0 0 0 0 0 0 0 0 0 0 0 127 0" result="hardAlpha"/>
<feOffset dy="8.06698"/>
<feGaussianBlur stdDeviation="4.03349"/>
<feComposite in2="hardAlpha" operator="out"/>
<feColorMatrix type="matrix" values="0 0 0 0 0 0 0 0 0 0 0 0 0 0 0 0 0 0 0.25 0"/>
<feBlend mode="normal" in2="BackgroundImageFix" result="effect1_dropShadow_55_1066"/>
<feBlend mode="normal" in="SourceGraphic" in2="effect1_dropShadow_55_1066" result="shape"/>
</filter>
<filter id="filter19_f_55_1066" x="49.3521" y="45.3516" width="137.139" height="137.139" filterUnits="userSpaceOnUse" color-interpolation-filters="sRGB">
<feFlood flood-opacity="0" result="BackgroundImageFix"/>
<feBlend mode="normal" in="SourceGraphic" in2="BackgroundImageFix" result="shape"/>
<feGaussianBlur stdDeviation="10.0837" result="effect1_foregroundBlur_55_1066"/>
</filter>
<filter id="filter20_d_55_1066" x="61.4526" y="65.519" width="112.937" height="112.934" filterUnits="userSpaceOnUse" color-interpolation-filters="sRGB">
<feFlood flood-opacity="0" result="BackgroundImageFix"/>
<feColorMatrix in="SourceAlpha" type="matrix" values="0 0 0 0 0 0 0 0 0 0 0 0 0 0 0 0 0 0 127 0" result="hardAlpha"/>
<feOffset dy="8.06698"/>
<feGaussianBlur stdDeviation="4.03349"/>
<feComposite in2="hardAlpha" operator="out"/>
<feColorMatrix type="matrix" values="0 0 0 0 0 0 0 0 0 0 0 0 0 0 0 0 0 0 0.25 0"/>
<feBlend mode="normal" in2="BackgroundImageFix" result="effect1_dropShadow_55_1066"/>
<feBlend mode="normal" in="SourceGraphic" in2="effect1_dropShadow_55_1066" result="shape"/>
</filter>
<filter id="filter21_f_55_1066" x="53.3849" y="49.3851" width="121.005" height="121.005" filterUnits="userSpaceOnUse" color-interpolation-filters="sRGB">
<feFlood flood-opacity="0" result="BackgroundImageFix"/>
<feBlend mode="normal" in="SourceGraphic" in2="BackgroundImageFix" result="shape"/>
<feGaussianBlur stdDeviation="6.05023" result="effect1_foregroundBlur_55_1066"/>
</filter>
<filter id="filter22_d_55_1066" x="57.4184" y="61.4856" width="112.937" height="112.934" filterUnits="userSpaceOnUse" color-interpolation-filters="sRGB">
<feFlood flood-opacity="0" result="BackgroundImageFix"/>
<feColorMatrix in="SourceAlpha" type="matrix" values="0 0 0 0 0 0 0 0 0 0 0 0 0 0 0 0 0 0 127 0" result="hardAlpha"/>
<feOffset dy="8.06698"/>
<feGaussianBlur stdDeviation="4.03349"/>
<feComposite in2="hardAlpha" operator="out"/>
<feColorMatrix type="matrix" values="0 0 0 0 0 0 0 0 0 0 0 0 0 0 0 0 0 0 0.25 0"/>
<feBlend mode="normal" in2="BackgroundImageFix" result="effect1_dropShadow_55_1066"/>
<feBlend mode="normal" in="SourceGraphic" in2="effect1_dropShadow_55_1066" result="shape"/>
</filter>
<filter id="filter23_f_55_1066" x="53.3852" y="49.3852" width="112.938" height="112.938" filterUnits="userSpaceOnUse" color-interpolation-filters="sRGB">
<feFlood flood-opacity="0" result="BackgroundImageFix"/>
<feBlend mode="normal" in="SourceGraphic" in2="BackgroundImageFix" result="shape"/>
<feGaussianBlur stdDeviation="4.03349" result="effect1_foregroundBlur_55_1066"/>
</filter>
<filter id="filter24_d_55_1066" x="53.3852" y="57.4521" width="112.937" height="112.934" filterUnits="userSpaceOnUse" color-interpolation-filters="sRGB">
<feFlood flood-opacity="0" result="BackgroundImageFix"/>
<feColorMatrix in="SourceAlpha" type="matrix" values="0 0 0 0 0 0 0 0 0 0 0 0 0 0 0 0 0 0 127 0" result="hardAlpha"/>
<feOffset dy="8.06698"/>
<feGaussianBlur stdDeviation="4.03349"/>
<feComposite in2="hardAlpha" operator="out"/>
<feColorMatrix type="matrix" values="0 0 0 0 0 0 0 0 0 0 0 0 0 0 0 0 0 0 0.25 0"/>
<feBlend mode="normal" in2="BackgroundImageFix" result="effect1_dropShadow_55_1066"/>
<feBlend mode="normal" in="SourceGraphic" in2="effect1_dropShadow_55_1066" result="shape"/>
</filter>
<filter id="filter25_f_55_1066" x="53.3853" y="49.3852" width="108.904" height="108.904" filterUnits="userSpaceOnUse" color-interpolation-filters="sRGB">
<feFlood flood-opacity="0" result="BackgroundImageFix"/>
<feBlend mode="normal" in="SourceGraphic" in2="BackgroundImageFix" result="shape"/>
<feGaussianBlur stdDeviation="3.02512" result="effect1_foregroundBlur_55_1066"/>
</filter>
<filter id="filter26_d_55_1066" x="51.3686" y="55.4354" width="112.937" height="112.934" filterUnits="userSpaceOnUse" color-interpolation-filters="sRGB">
<feFlood flood-opacity="0" result="BackgroundImageFix"/>
<feColorMatrix in="SourceAlpha" type="matrix" values="0 0 0 0 0 0 0 0 0 0 0 0 0 0 0 0 0 0 127 0" result="hardAlpha"/>
<feOffset dy="8.06698"/>
<feGaussianBlur stdDeviation="4.03349"/>
<feComposite in2="hardAlpha" operator="out"/>
<feColorMatrix type="matrix" values="0 0 0 0 0 0 0 0 0 0 0 0 0 0 0 0 0 0 0.25 0"/>
<feBlend mode="normal" in2="BackgroundImageFix" result="effect1_dropShadow_55_1066"/>
<feBlend mode="normal" in="SourceGraphic" in2="effect1_dropShadow_55_1066" result="shape"/>
</filter>
<filter id="filter27_f_55_1066" x="53.3855" y="49.3851" width="104.871" height="104.871" filterUnits="userSpaceOnUse" color-interpolation-filters="sRGB">
<feFlood flood-opacity="0" result="BackgroundImageFix"/>
<feBlend mode="normal" in="SourceGraphic" in2="BackgroundImageFix" result="shape"/>
<feGaussianBlur stdDeviation="2.01674" result="effect1_foregroundBlur_55_1066"/>
</filter>
<filter id="filter28_d_55_1066" x="49.352" y="53.4186" width="112.937" height="112.934" filterUnits="userSpaceOnUse" color-interpolation-filters="sRGB">
<feFlood flood-opacity="0" result="BackgroundImageFix"/>
<feColorMatrix in="SourceAlpha" type="matrix" values="0 0 0 0 0 0 0 0 0 0 0 0 0 0 0 0 0 0 127 0" result="hardAlpha"/>
<feOffset dy="8.06698"/>
<feGaussianBlur stdDeviation="4.03349"/>
<feComposite in2="hardAlpha" operator="out"/>
<feColorMatrix type="matrix" values="0 0 0 0 0 0 0 0 0 0 0 0 0 0 0 0 0 0 0.25 0"/>
<feBlend mode="normal" in2="BackgroundImageFix" result="effect1_dropShadow_55_1066"/>
<feBlend mode="normal" in="SourceGraphic" in2="effect1_dropShadow_55_1066" result="shape"/>
</filter>
<filter id="filter29_f_55_1066" x="54.3934" y="50.3935" width="100.837" height="100.837" filterUnits="userSpaceOnUse" color-interpolation-filters="sRGB">
<feFlood flood-opacity="0" result="BackgroundImageFix"/>
<feBlend mode="normal" in="SourceGraphic" in2="BackgroundImageFix" result="shape"/>
<feGaussianBlur stdDeviation="1.00837" result="effect1_foregroundBlur_55_1066"/>
</filter>
<filter id="filter30_d_55_1066" x="48.3432" y="52.4103" width="112.937" height="112.934" filterUnits="userSpaceOnUse" color-interpolation-filters="sRGB">
<feFlood flood-opacity="0" result="BackgroundImageFix"/>
<feColorMatrix in="SourceAlpha" type="matrix" values="0 0 0 0 0 0 0 0 0 0 0 0 0 0 0 0 0 0 127 0" result="hardAlpha"/>
<feOffset dy="8.06698"/>
<feGaussianBlur stdDeviation="4.03349"/>
<feComposite in2="hardAlpha" operator="out"/>
<feColorMatrix type="matrix" values="0 0 0 0 0 0 0 0 0 0 0 0 0 0 0 0 0 0 0.25 0"/>
<feBlend mode="normal" in2="BackgroundImageFix" result="effect1_dropShadow_55_1066"/>
<feBlend mode="normal" in="SourceGraphic" in2="effect1_dropShadow_55_1066" result="shape"/>
</filter>
<filter id="filter31_ii_55_1066" x="54.394" y="49.3851" width="99.8288" height="100.837" filterUnits="userSpaceOnUse" color-interpolation-filters="sRGB">
<feFlood flood-opacity="0" result="BackgroundImageFix"/>
<feBlend mode="normal" in="SourceGraphic" in2="BackgroundImageFix" result="shape"/>
<feColorMatrix in="SourceAlpha" type="matrix" values="0 0 0 0 0 0 0 0 0 0 0 0 0 0 0 0 0 0 127 0" result="hardAlpha"/>
<feOffset dx="-1.00837" dy="-2.01674"/>
<feGaussianBlur stdDeviation="1.00837"/>
<feComposite in2="hardAlpha" operator="arithmetic" k2="-1" k3="1"/>
<feColorMatrix type="matrix" values="0 0 0 0 0.495 0 0 0 0 0.745281 0 0 0 0 0.9 0 0 0 1 0"/>
<feBlend mode="normal" in2="shape" result="effect1_innerShadow_55_1066"/>
<feColorMatrix in="SourceAlpha" type="matrix" values="0 0 0 0 0 0 0 0 0 0 0 0 0 0 0 0 0 0 127 0" result="hardAlpha"/>
<feOffset dx="2.01674" dy="2.01674"/>
<feGaussianBlur stdDeviation="1.00837"/>
<feComposite in2="hardAlpha" operator="arithmetic" k2="-1" k3="1"/>
<feColorMatrix type="matrix" values="0 0 0 0 1 0 0 0 0 1 0 0 0 0 1 0 0 0 1 0"/>
<feBlend mode="soft-light" in2="effect1_innerShadow_55_1066" result="effect2_innerShadow_55_1066"/>
</filter>
<linearGradient id="paint0_linear_55_1066" x1="176.465" y1="0" x2="176.465" y2="352.93" gradientUnits="userSpaceOnUse">
<stop stop-color="#4EBCFF"/>
<stop offset="1" stop-color="#1199ED"/>
</linearGradient>
<linearGradient id="paint1_linear_55_1066" x1="103.804" y1="51.4019" x2="103.804" y2="148.202" gradientUnits="userSpaceOnUse">
<stop stop-color="white"/>
<stop offset="1" stop-color="#ADE0FF"/>
</linearGradient>
<linearGradient id="paint2_linear_55_1066" x1="183.5" y1="5.01672" x2="183.5" y2="351.967" gradientUnits="userSpaceOnUse">
<stop stop-color="white" stop-opacity="0.22"/>
<stop offset="1" stop-color="white" stop-opacity="0"/>
</linearGradient>
<clipPath id="clip0_55_1066">
<rect x="7" y="3" width="352.93" height="352.93" rx="48.4019" fill="white"/>
</clipPath>
</defs>
</svg>
